<svg width="87" height="87" fill="none" xmlns="http://www.w3.org/2000/svg"><path d="M66.554 14.47c-1.854 0-3.381.589-4.581 1.756-1.2 1.168-1.795 2.665-1.795 4.481 0 1.767.605 3.223 1.805 4.401 1.2 1.168 2.697 1.756 4.502 1.756 1.814 0 3.321-.598 4.531-1.786 1.21-1.197 1.815-2.674 1.815-4.46 0-1.727-.605-3.184-1.815-4.372-1.21-1.187-2.697-1.776-4.462-1.776Z" fill="#000"/><path fill-rule="evenodd" clip-rule="evenodd" d="M87 35.267c0 3.303-2.667 5.988-5.95 5.988H51.959c-3.282 0-5.95-2.685-5.95-5.988V5.987c0-3.303 2.668-5.987 5.95-5.987h29.093C84.333 0 87 2.684 87 5.988v29.28ZM66.465 12.245c2.508 0 4.6.798 6.266 2.395 1.666 1.596 2.5 3.602 2.5 6.007s-.844 4.401-2.53 5.988C71.017 28.212 68.895 29 66.337 29c-2.45 0-4.482-.788-6.118-2.365-1.626-1.577-2.45-3.563-2.45-5.938 0-2.445.824-4.46 2.46-6.057 1.646-1.597 3.728-2.395 6.237-2.395Z" fill="#000"/><path d="M19.157 60.295h-2.905V72.45h2.975c1.16 0 2.062-.08 2.706-.24.645-.16 1.18-.359 1.607-.608a5.74 5.74 0 0 0 1.18-.909c1.15-1.167 1.715-2.644 1.715-4.43 0-1.757-.585-3.184-1.765-4.292a5.85 5.85 0 0 0-1.497-1.017 6.224 6.224 0 0 0-1.596-.53c-.496-.08-1.3-.129-2.42-.129Z" fill="#000"/><path fill-rule="evenodd" clip-rule="evenodd" d="M40.991 81.012c0 3.304-2.667 5.988-5.95 5.988H5.95C2.667 87 0 84.316 0 81.012v-29.28c0-3.302 2.667-5.987 5.95-5.987h29.092c3.282 0 5.95 2.685 5.95 5.988v29.28Zm-27.06-7.225v-14.83c0-.458.328-.748.774-.748h4.7c2.211 0 3.956.33 5.245.998 1.29.669 2.31 1.647 3.064 2.944a8.182 8.182 0 0 1 1.14 4.231 8.07 8.07 0 0 1-.624 3.134 7.816 7.816 0 0 1-1.795 2.634 7.88 7.88 0 0 1-2.756 1.767c-.615.24-1.17.399-1.686.489-.516.08-1.487.12-2.925.12 0 0-3.847-.01-4.373 0a.747.747 0 0 1-.764-.739ZM81.05 87c3.283 0 5.95-2.684 5.95-5.988v-29.28c0-3.302-2.667-5.987-5.95-5.987H51.959c-3.282 0-5.95 2.685-5.95 5.988v29.28c0 3.303 2.668 5.987 5.95 5.987h29.093ZM64.116 72.45h6.068c.575 0 1.041.469 1.041 1.048 0 .578-.466 1.047-1.041 1.047h-.143c-.887-.001-5.66-.01-7.512-.01a.75.75 0 0 1-.734-.748v-14.84c0-.388.298-.738.734-.738 1.822 0 6.457-.008 7.296-.01h.13c.576 0 1.042.47 1.042 1.048 0 .579-.466 1.048-1.041 1.048h-5.84v4.98l5.622-.01c.575 0 1.04.469 1.04 1.047 0 .57-.455 1.038-1.02 1.048l-5.642.01v5.08ZM40.991 35.267c0 3.303-2.667 5.988-5.95 5.988H5.95C2.667 41.255 0 38.57 0 35.267V5.987C0 2.685 2.667 0 5.95 0h29.092c3.282 0 5.95 2.684 5.95 5.988v29.28Zm-14.735-9.48c-.158 0-.446.09-.446.09-1.378.638-2.786.957-4.214.957-1.884 0-3.43-.578-4.64-1.726-1.21-1.158-1.815-2.625-1.815-4.42 0-1.777.615-3.254 1.844-4.442 1.23-1.177 2.777-1.776 4.631-1.776 1.309 0 2.628.27 3.976.838.149.07.327.13.496.13.605 0 1.1-.499 1.1-1.108 0-.469-.396-.908-.703-1.027-1.805-.71-3.47-1.058-4.978-1.058-2.469 0-4.551.808-6.237 2.435-1.686 1.626-2.528 3.622-2.528 5.997 0 1.497.366 2.894 1.1 4.172a8.116 8.116 0 0 0 2.995 3.033c1.259.729 2.796 1.098 4.61 1.098 1.914 0 3.66-.36 5.186-1.048.447-.17.724-.599.724-1.048a1.093 1.093 0 0 0-1.1-1.097Z" fill="#000"/><path d="M25.81 25.876s.288-.09.447-.09c.614 0 1.11.5 1.1 1.098 0 .45-.277.878-.724 1.048-1.527.689-3.272 1.048-5.185 1.048-1.815 0-3.352-.37-4.611-1.098a8.116 8.116 0 0 1-2.995-3.033 8.248 8.248 0 0 1-1.1-4.172c0-2.375.842-4.37 2.528-5.997 1.686-1.627 3.768-2.435 6.237-2.435 1.507 0 3.173.349 4.978 1.058.307.12.704.558.704 1.027 0 .61-.496 1.108-1.101 1.108-.169 0-.347-.06-.496-.13-1.348-.569-2.667-.838-3.976-.838-1.854 0-3.401.599-4.63 1.776-1.23 1.188-1.845 2.665-1.845 4.441 0 1.796.605 3.263 1.815 4.421 1.21 1.148 2.756 1.726 4.64 1.726 1.428 0 2.836-.319 4.214-.958Z" fill="#fff"/><path fill-rule="evenodd" clip-rule="evenodd" d="M72.731 14.64c-1.665-1.597-3.758-2.395-6.266-2.395-2.509 0-4.591.798-6.237 2.395-1.636 1.596-2.46 3.612-2.46 6.057 0 2.375.824 4.361 2.45 5.938C61.854 28.212 63.887 29 66.336 29c2.558 0 4.68-.788 6.366-2.365 1.685-1.587 2.528-3.583 2.528-5.988 0-2.405-.833-4.41-2.499-6.007Zm-6.177-.17c-1.854 0-3.381.589-4.581 1.756-1.2 1.168-1.795 2.665-1.795 4.481 0 1.767.605 3.223 1.805 4.401 1.2 1.168 2.697 1.756 4.502 1.756 1.814 0 3.321-.598 4.531-1.786 1.21-1.197 1.815-2.674 1.815-4.46 0-1.727-.605-3.184-1.815-4.372-1.21-1.187-2.697-1.776-4.462-1.776Z" fill="#fff"/><path d="M70.183 72.45h-6.068v-5.08l5.642-.01a1.047 1.047 0 0 0 1.02-1.047c0-.58-.465-1.048-1.04-1.048l-5.622.01v-4.98h5.84c.575 0 1.041-.47 1.041-1.048 0-.579-.466-1.048-1.041-1.048h-.131c-.84.002-5.474.01-7.296.01a.728.728 0 0 0-.734.739v14.84c0 .418.347.748.734.748 1.83 0 6.51.007 7.478.01h.177c.575 0 1.041-.47 1.041-1.048 0-.58-.466-1.048-1.041-1.048Z" fill="#fff"/><path fill-rule="evenodd" clip-rule="evenodd" d="M13.931 58.958v14.83c0 .338.278.748.764.738.526-.01 4.373 0 4.373 0 1.438 0 2.41-.04 2.925-.12.516-.09 1.07-.25 1.686-.49a7.88 7.88 0 0 0 2.756-1.766 7.816 7.816 0 0 0 1.795-2.634 8.07 8.07 0 0 0 .625-3.134 8.182 8.182 0 0 0-1.14-4.23c-.754-1.298-1.776-2.276-3.065-2.945-1.289-.668-3.034-.998-5.245-.998h-4.7c-.446 0-.774.29-.774.749Zm5.226 1.337h-2.905V72.45h2.975c1.16 0 2.062-.08 2.706-.24.645-.16 1.18-.359 1.607-.608a5.74 5.74 0 0 0 1.18-.909c1.15-1.167 1.715-2.644 1.715-4.43 0-1.757-.585-3.184-1.765-4.292a5.85 5.85 0 0 0-1.497-1.017 6.224 6.224 0 0 0-1.596-.53c-.496-.08-1.3-.129-2.42-.129Z" fill="#fff"/></svg>